<?xml version="1.0" encoding="utf-8"?>
<!-- Svg Vector Icons : http://www.onlinewebfonts.com/icon -->
<!DOCTYPE svg PUBLIC "-//W3C//DTD SVG 1.1//EN" "http://www.w3.org/Graphics/SVG/1.1/DTD/svg11.dtd">
<svg version="1.1" xmlns="http://www.w3.org/2000/svg" xmlns:xlink="http://www.w3.org/1999/xlink" x="0px" y="0px" viewBox="0 0 256 256" enable-background="new 0 0 256 256" xml:space="preserve">
<metadata> Svg Vector Icons : http://www.onlinewebfonts.com/icon </metadata>
<g><g><path fill="#000000" d="M128,246c-65.3,0-118-52.7-118-118S62.7,10,128,10s118,52.7,118,118S193.3,246,128,246L128,246z M139,156.3l-5.5,5.5v5.5c0,0.8,0-0.8,0,0v5.5c0,10.2,7.1,17.3,16.5,17.3c27.5,1.6,35.4,11.8,35.4,11.8c1.6,2.4,3.2,4.7,4.7,6.3c0.8,1.6,2.4,3.2,3.2,3.9C175.2,226.3,152.4,235,128,235s-47.2-8.6-65.3-22.8c0.8-1.6,2.4-3.2,3.2-3.9c1.6-2.4,3.2-4.7,4.7-6.3c0,0,7.9-10.2,36.2-11.8l0,0c9.4,0,16.5-7.1,16.5-17.3v-5.5c0-0.8,0,0.8,0,0v-5.5l-5.5-5.5c-3.9-1.6-9.4-5.5-14.2-8.6h-0.8c-3.9-2.4-7.9-6.3-7.9-7.9v-2.4c-2.4-11-5.5-29.9-5.5-37c0-26.8,12.6-39.3,39.3-39.3c26.7,0,39.3,12.6,39.3,39.3c0,3.2,0.8,18.9-6.3,32.2C154.8,145.3,141.4,155.5,139,156.3L139,156.3z M128,21C69,21,21,69,21,128c0,29.9,12.6,57.4,33,77.1c2.4-3.2,4.7-6.3,6.3-9.4c0,0,9.4-15.7,44.8-16.5c3.9,0,5.5-2.4,5.5-6.3l0,0c0-3.2,0-5.5,0-5.5c0-0.8,0-1.6,0-2.4c-3.9-1.6-8.6-4.7-14.2-8.6c0,0-13.4-8.6-13.4-17.3c0,0-5.5-29.1-5.5-39.3c0-26,11-50.4,50.4-50.4c38.6,0,50.4,24.4,50.4,50.4c0,10.2-5.5,39.3-5.5,39.3c0,9.4-13.4,17.3-13.4,17.3c-5.5,3.9-10.2,7.1-14.2,8.6c0,0.8,0,0.8,0,1.6c0,0,0,2.4,0,5.5l0,0c0,3.9,1.6,6.3,5.5,6.3c36.2,1.6,44.8,16.5,44.8,16.5c2.4,3.2,3.9,6.3,6.3,9.4c20.4-19.7,33-46.4,33-77.1C235,69,187,21,128,21L128,21z"/></g></g>
</svg>